<svg xmlns="http://www.w3.org/2000/svg" width="21" height="18" viewBox="0 0 21 18">
  <g id="Icon_feather-chevrons-right" data-name="Icon feather-chevrons-right" transform="translate(-7.5 -9)">
    <path id="Path_1348" data-name="Path 1348" d="M19.5,27a1.5,1.5,0,0,1-1.061-2.561L24.879,18l-6.439-6.439a1.5,1.5,0,0,1,2.121-2.121l7.5,7.5a1.5,1.5,0,0,1,0,2.121l-7.5,7.5A1.5,1.5,0,0,1,19.5,27Z" fill="#fff"/>
    <path id="Path_1349" data-name="Path 1349" d="M9,27a1.5,1.5,0,0,1-1.061-2.561L14.379,18,7.939,11.561a1.5,1.5,0,0,1,2.121-2.121l7.5,7.5a1.5,1.5,0,0,1,0,2.121l-7.5,7.5A1.5,1.5,0,0,1,9,27Z" fill="#fff"/>
  </g>
</svg>
