<svg xmlns="http://www.w3.org/2000/svg" xmlns:xlink="http://www.w3.org/1999/xlink" width="228" height="250.007" viewBox="0 0 228 250.007">
  <defs>
    <clipPath id="clip-path">
      <rect id="Rectangle_461" data-name="Rectangle 461" width="0.046" height="0.086" fill="none"/>
    </clipPath>
  </defs>
  <g id="Group_593" data-name="Group 593" transform="translate(-7363.067 -2879)">
    <circle id="Ellipse_52" data-name="Ellipse 52" cx="114" cy="114" r="114" transform="translate(7363.067 2889.818)" fill="#ff8338"/>
    <g id="Group_592" data-name="Group 592" transform="translate(7376.74 2879)">
      <path id="Path_1357" data-name="Path 1357" d="M260.818,102.682c12.172-6.454,11.058-22.412,2.4-27.2a1.32,1.32,0,0,1-.094-2.272C277.512,63.868,262.041.915,207.038.915c-58.226,0-68.847,63.679-55.344,73.276.9.511,2.717.268,2.744,1.719.26,5.316.051,20.659-.172,27.728l-.048-.025c-.516,4.127-1.913,38.206,6.2,52.083,4.668,9.223,20.483,28.16,21.949,24.5a1.327,1.327,0,0,1,2.35-.036c4.938,9.138,15.289,14.02,21.639,17.8,18.114-6.337,25.823-20.378,24.278-20.205.456.651,1.437,3.938,3.129,2.659,30.6-21.631,26.886-57.695,27.055-77.73m-30.23,74.985h0" transform="translate(-108.489 -0.678)" fill="#feeece"/>
      <path id="Path_1358" data-name="Path 1358" d="M470.906,682.567h0" transform="translate(-348.807 -505.578)" fill="#71b32f"/>
      <path id="Path_1359" data-name="Path 1359" d="M471.028,682.8l-.046-.086.046.086" transform="translate(-348.883 -505.723)" fill="#71b32f"/>
      <g id="Group_591" data-name="Group 591" transform="translate(122.099 176.989)" opacity="0.39">
        <g id="Group_590" data-name="Group 590" transform="translate(0 0)">
          <g id="Group_589" data-name="Group 589" clip-path="url(#clip-path)">
            <path id="Path_1360" data-name="Path 1360" d="M471.028,682.8l-.046-.086.046.086" transform="translate(-470.982 -682.712)" fill="#651c76"/>
          </g>
        </g>
      </g>
      <path id="Path_1361" data-name="Path 1361" d="M585.983,287.377c6.253-1.6,17.272,17.935-.472,27.883-.216-7.854.15-23.737.472-27.883" transform="translate(-433.673 -212.807)" fill="#ff9f7e"/>
      <path id="Path_1362" data-name="Path 1362" d="M146.243,314.984c.239-7.592.462-24.727.107-28.736-8.748-.779-18.913,19.418-.107,28.736" transform="translate(-100.466 -212.024)" fill="#ff9f7e"/>
      <path id="Path_1363" data-name="Path 1363" d="M144,601.051a62.936,62.936,0,0,1-18.725,21.629c-1.687,1.269-2.68-2-3.129-2.659.808,1.341-3.919,10.453-23,20.248-7.249-2.447-17.491-8.789-22.917-17.842-1.97-2.448-2.489,2.146-4.489.282-3.129-3.434-13.624-12.6-19.81-24.745h-.042l3.947,7.335C49.319,607.93,2.577,615.731,0,638.635c44.38,68.909,160.656,65.172,200.555-6.266-3.28-24.8-53.437-30.959-56.555-31.318" transform="translate(0 -442.946)" fill="#dc5d35"/>
      <path id="Path_1364" data-name="Path 1364" d="M278.483,609.871l4.96.771s-13.993,57.393-73.034,85.3c-10.589,3.283-30.759-4.049-28.716-9.219,4.43-.066,57.405-13.766,83.954-60.378,1.549-1.191,11.019-10.717,12.836-16.471" transform="translate(-134.484 -451.766)" fill="#f1d3a9"/>
      <path id="Path_1365" data-name="Path 1365" d="M392.113,854.331c3.089,2.03,38.047,2.446,40.155-4.237s16.062-27.446,12.355-32.3c-4.854-1.765-15.268,8.3-36.89,24.446-12,9.62-15.621,12.091-15.621,12.091" transform="translate(-290.46 -605.638)" fill="#f1d3a9"/>
      <path id="Path_1366" data-name="Path 1366" d="M116.291,852.1c-.277-6.286,4.136-10.921,4.335-1.721s-4.169,5.494-4.335,1.721" transform="translate(-86.134 -626.083)" fill="#f17c5d"/>
      <path id="Path_1367" data-name="Path 1367" d="M390.57,1.243c24.125-6.134,24.865,11.6,18.958,27.788,3.045,4.236,11.4,13.831,25.755,14.66,4.3,2.549,5.522,15.491,2.857,15.507s-24.375-1.705-35.892-13.619c-3.442,4.633-9.986,9.915-12.671,12.3-3.48.006-10.484-5.766-10.887-9.763C381.2,44.784,393.377,33,390.57,1.243" transform="translate(-280.516 0)" fill="#f1d3a9"/>
      <path id="Path_1368" data-name="Path 1368" d="M194.525,17.345c1.888,12.085,2.254,52.414-57.738,52.815-5.451-4.894-4.338-16.556,2.871-16.329,7.3-.479,36.51,2.433,54.867-36.486" transform="translate(-98.786 -12.848)" fill="#f1d3a9"/>
      <path id="Path_1369" data-name="Path 1369" d="M248.8,185.616c-13.729,13.212-28.938,23.149-45.25,24.49,0,0-2.945,43.664,13.45,52.906,12.511-13.439,20.069-20.814,32.22-13.994,13.122-8.094,24.023,5.233,31.458,13.661,7.964-2.957,15.955-22.879,13.945-52.632-17.013-5.042-30.945-8.167-45.822-24.432" transform="translate(-150.631 -137.496)" fill="#ff9f7c"/>
      <path id="Path_1370" data-name="Path 1370" d="M251.884,342.25c2.486,1.64,8.887,4.974,17.142.255,2.106,0,2.638,2.042,1.707,2.9s-11.786,7.67-21.119.126c-.331-2.779,1.442-3.825,2.27-3.279" transform="translate(-184.873 -253.42)" fill="#873f00"/>
      <path id="Path_1371" data-name="Path 1371" d="M445.072,341.269c-2.649,1.64-9.471,4.974-18.267.255-2.244,0-2.811,2.043-1.819,2.9s12.56,7.67,22.505.126c.353-2.778-1.537-3.825-2.419-3.279" transform="translate(-314.463 -252.693)" fill="#873f00"/>
      <path id="Path_1372" data-name="Path 1372" d="M368.059,196.776c-3.515,4.627-7.43,20.3,0,20.7,8.035.438,3.251-15.974,0-20.7" transform="translate(-269.51 -145.763)" fill="#f31b00"/>
      <path id="Path_1373" data-name="Path 1373" d="M376.36,324.422a2.192,2.192,0,1,1-2.191-2.279,2.236,2.236,0,0,1,2.191,2.279" transform="translate(-275.546 -238.63)" fill="#f31b00"/>
      <path id="Path_1376" data-name="Path 1376" d="M349.816,466.7c2.209,3.026,8.784,8.044,10.709,8.762a25.381,25.381,0,0,1-20.773-.281c1.417-.723,9.79-5.852,10.064-8.481" transform="translate(-251.674 -345.707)" fill="#873f00"/>
      <path id="Path_1377" data-name="Path 1377" d="M225.746,491.884c.174,1.989,5.487,11.079,25.368,2.232a25.657,25.657,0,0,0,21.657.409c4.91,1.93,17.995,8.107,25.782-1.4,4.213-.573,4.523-.573,4.468-.242s-8.462,16.613-29.179,6.619c-4.832,1.39-13.3,4.236-23.431.2-6.288,2.184-20.445,8.494-29.517-6.575A15.423,15.423,0,0,0,225.746,491.884Z" transform="translate(-163.628 -364.366)" fill="#f1d3a9"/>
    </g>
  </g>
</svg>
