<svg xmlns="http://www.w3.org/2000/svg" width="360" height="137.186" viewBox="0 0 360 137.186">
  <g id="Group_3386" data-name="Group 3386" transform="translate(-2709 -2206)">
    <path id="Path_1644" data-name="Path 1644" d="M0,0H360V137.186H0Z" transform="translate(3069 2343.186) rotate(180)" fill="none"/>
    <g id="Group_3385" data-name="Group 3385" transform="translate(2709 2206)">
      <g id="Group_556" data-name="Group 556">
        <path id="Icon_ionic-md-star" data-name="Icon ionic-md-star" d="M6.233,8.223l1.506.908-.4-1.713L8.67,6.266l-1.752-.15L6.233,4.5,5.549,6.115,3.8,6.266,5.126,7.418l-.4,1.713Z" transform="translate(226.203 70.5)" fill="#533000"/>
        <path id="Icon_ionic-md-star-2" data-name="Icon ionic-md-star" d="M6.233,8.223l1.506.908-.4-1.713L8.67,6.266l-1.752-.15L6.233,4.5,5.549,6.115,3.8,6.266,5.126,7.418l-.4,1.713Z" transform="translate(286.203 48.5)" fill="#533000"/>
        <path id="Icon_ionic-md-star-3" data-name="Icon ionic-md-star" d="M6.233,8.223l1.506.908-.4-1.713L8.67,6.266l-1.752-.15L6.233,4.5,5.549,6.115,3.8,6.266,5.126,7.418l-.4,1.713Z" transform="translate(116.203 18.5)" fill="#533000"/>
        <path id="Icon_open-moon" data-name="Icon open-moon" d="M3.356,0A4.928,4.928,0,1,0,9.6,6.243a5.109,5.109,0,0,1-1.579.271A4.933,4.933,0,0,1,3.084,1.579,4.77,4.77,0,0,1,3.356,0Z" transform="translate(259 13.402)" fill="#533000"/>
        <g id="Icon_ionic-ios-sunny" data-name="Icon ionic-ios-sunny" transform="translate(53.558 60.632)">
          <g id="Group_555" data-name="Group 555" transform="translate(3.375 3.375)">
            <path id="Path_1332" data-name="Path 1332" d="M17.459,27.211a.542.542,0,0,0-.541.541v1.624a.541.541,0,0,0,1.083,0V27.752A.542.542,0,0,0,17.459,27.211Z" transform="translate(-10.146 -15.293)" fill="#533000"/>
            <path id="Path_1333" data-name="Path 1333" d="M17.459,3.375a.542.542,0,0,0-.541.541V5.541a.541.541,0,0,0,1.083,0V3.916A.542.542,0,0,0,17.459,3.375Z" transform="translate(-10.146 -3.375)" fill="#533000"/>
            <path id="Path_1334" data-name="Path 1334" d="M6.082,17.459a.542.542,0,0,0-.541-.541H3.916a.541.541,0,0,0,0,1.083H5.541A.542.542,0,0,0,6.082,17.459Z" transform="translate(-3.375 -10.146)" fill="#533000"/>
            <path id="Path_1335" data-name="Path 1335" d="M29.377,16.917H27.752a.541.541,0,0,0,0,1.083h1.624a.541.541,0,1,0,0-1.083Z" transform="translate(-15.293 -10.146)" fill="#533000"/>
            <path id="Path_1336" data-name="Path 1336" d="M9.032,24.195a.54.54,0,0,0-.383.158L7.5,25.5a.542.542,0,0,0,.766.766l1.15-1.15a.541.541,0,0,0-.383-.925Z" transform="translate(-5.358 -13.785)" fill="#533000"/>
            <path id="Path_1337" data-name="Path 1337" d="M24.736,9.573a.54.54,0,0,0,.383-.158l1.15-1.15A.542.542,0,0,0,25.5,7.5l-1.15,1.15a.541.541,0,0,0,.383.925Z" transform="translate(-13.785 -5.358)" fill="#533000"/>
            <path id="Path_1338" data-name="Path 1338" d="M8.265,7.5a.542.542,0,0,0-.766.766l1.15,1.15a.542.542,0,0,0,.766-.766Z" transform="translate(-5.358 -5.358)" fill="#533000"/>
            <path id="Path_1339" data-name="Path 1339" d="M25.119,24.353a.542.542,0,1,0-.766.766l1.15,1.15a.542.542,0,0,0,.766-.766Z" transform="translate(-13.785 -13.785)" fill="#533000"/>
          </g>
          <path id="Path_1340" data-name="Path 1340" d="M14.625,11.25A3.375,3.375,0,1,0,18,14.625a3.38,3.38,0,0,0-3.375-3.375Z" transform="translate(-3.938 -3.938)" fill="#533000"/>
        </g>
      </g>
       <g transform="translate(180 40)" text-anchor="middle">

		<!-- Title -->
		<text fill="#533000" font-size="22" font-family="sans-serif">
		  <tspan y="0">Findastro</tspan>
		</text>

		<!-- Center Line (between title & subtitle) -->
		<line x1="-85" x2="85" y1="6" y2="6" stroke="#000000" stroke-width=".50" />

		<!-- Subtitle -->
		<text transform="translate(0 28)" fill="#533000" font-size="9"
			  font-family="sans-serif" font-weight="300" opacity="0.88">
		  <tspan y="-10">AI powered Astrologer consultations</tspan>
		</text>

	  </g>
    </g>
  </g>
</svg>
